<svg xmlns="http://www.w3.org/2000/svg" viewBox="0 0 24 24" width="24" height="24">
  <path fill="#ffffff" d="M12 1C5.925 1 1 5.925 1 12s4.925 11 11 11 11-4.925 11-11S18.075 1 12 1Zm0 2.007c.048.021.153.081.315.248.302.313.667.872 1.016 1.725.611 1.494 1.053 3.597 1.149 6.02H9.519c.097-2.423.539-4.526 1.15-6.021.349-.852.714-1.411 1.016-1.724.162-.167.267-.228.315-.248Zm-2.835.45C8.248 5.277 7.632 7.96 7.52 11H3.057a9.01 9.01 0 016.108-7.543Zm5.669 0A9.01 9.01 0 0120.943 11H16.48c-.112-3.04-.729-5.723-1.646-7.543ZM9.52 13h4.961c-.097 2.423-.539 4.526-1.15 6.02-.349.853-.714 1.412-1.016 1.725-.162.167-.267.228-.315.248-.048-.021-.153-.081-.315-.248-.302-.313-.667-.872-1.016-1.725-.611-1.494-1.053-3.597-1.149-6.02Zm-6.463 0H7.52c.112 3.039.729 5.722 1.645 7.542A9 9 0 013.057 13Zm13.423 0h4.464a9.001 9.001 0 01-6.11 7.542c.916-1.82 1.534-4.502 1.646-7.542Z"/>
</svg>